<?xml version="1.0" encoding="iso-8859-1"?>
<!-- Generator: Adobe Illustrator 19.0.0, SVG Export Plug-In . SVG Version: 6.00 Build 0)  -->
<svg version="1.1" id="Layer_1" xmlns="http://www.w3.org/2000/svg" xmlns:xlink="http://www.w3.org/1999/xlink" x="0px" y="0px"
	 viewBox="0 0 512 512" style="enable-background:new 0 0 512 512;" xml:space="preserve">
<circle style="fill:#0055B8;" cx="255.998" cy="255.998" r="247.824"/>
<path style="fill:#0082CA;" d="M256,322.65c-76.614,0-141.344,50.84-162.322,120.619c43.484,37.724,100.237,60.555,162.322,60.555
	s118.837-22.833,162.322-60.555C397.344,373.489,332.614,322.65,256,322.65z"/>
<g>
	<polygon style="fill:#FFFFFF;" points="200.419,332.661 195.247,374.077 256,345.622 	"/>
	<polygon style="fill:#FFFFFF;" points="311.581,332.661 316.753,374.077 256,345.622 	"/>
</g>
<path style="opacity:0.1;enable-background:new    ;" d="M256,322.65c-29.782,0-57.765,7.685-82.084,21.176
	c24.092,14.122,52.14,22.227,82.084,22.227c29.944,0,57.991-8.105,82.084-22.227C313.766,330.335,285.782,322.65,256,322.65z"/>
<circle style="fill:#FFBF9E;" cx="255.998" cy="203.475" r="144.326"/>
<circle style="fill:#C29178;" cx="255.998" cy="214.069" r="17.742"/>
<path style="fill:#333E48;" d="M256,59.158c-74.039,0-135.045,55.756-143.348,127.569c58.778-9.379,110.475-39.971,146.981-83.703
	c32.879,32.716,78.202,52.939,128.25,52.939c1.472,0,2.939-0.021,4.404-0.056C372.625,99.576,319.036,59.158,256,59.158z"/>
<path style="fill:#1E252B;" d="M256,437.627c-6.02,0-10.899,4.88-10.899,10.899c0,6.02,4.88,10.899,10.899,10.899
	c6.018,0,10.899-4.88,10.899-10.899C266.899,442.506,262.018,437.627,256,437.627z M256,387.309c-6.02,0-10.899,4.88-10.899,10.899
	c0,6.02,4.88,10.899,10.899,10.899c6.018,0,10.899-4.88,10.899-10.899C266.899,392.188,262.018,387.309,256,387.309z
	 M195.246,199.222c5.965,0,10.8-4.835,10.8-10.799c0-5.964-4.835-10.799-10.8-10.799c-5.963,0-10.798,4.835-10.798,10.799
	C184.447,194.387,189.283,199.222,195.246,199.222z M316.759,199.222c5.964,0,10.799-4.835,10.799-10.799
	c0-5.964-4.836-10.799-10.799-10.799c-5.965,0-10.799,4.835-10.799,10.799C305.96,194.387,310.794,199.222,316.759,199.222z
	 M437.019,74.981C388.666,26.63,324.38,0.001,256,0.001S123.333,26.63,74.981,74.981C26.629,123.333,0,187.62,0,256
	s26.629,132.667,74.981,181.019c48.352,48.352,112.639,74.98,181.019,74.98s132.667-26.629,181.019-74.98
	C485.371,388.667,512,324.38,512,256S485.371,123.333,437.019,74.981z M256,495.65c-56.481,0-109.972-19.418-152.873-55.079
	c14.369-42.537,46.523-77.725,87.561-95.959l-3.553,28.451c-0.368,2.954,0.897,5.875,3.306,7.625
	c1.421,1.033,3.108,1.562,4.807,1.562c1.178,0,2.362-0.254,3.467-0.772l54.526-25.539c0.919,0.016,1.835,0.035,2.759,0.035
	s1.84-0.019,2.759-0.035l54.526,25.539c1.105,0.518,2.289,0.772,3.467,0.772c1.699,0,3.385-0.529,4.807-1.562
	c2.409-1.75,3.674-4.671,3.306-7.625l-3.553-28.451c41.038,18.235,73.192,53.422,87.561,95.959
	C365.972,476.232,312.481,495.65,256,495.65z M260.21,114.854c34.649,31.502,79.06,48.894,126.128,49.267
	c3.772,12.466,5.809,25.678,5.809,39.359c0,75.072-61.075,136.148-136.147,136.148s-136.147-61.075-136.147-136.148
	c0-3.286,0.123-6.543,0.353-9.771C174.209,183.664,223.43,155.929,260.21,114.854z M122.526,176.585
	C135.045,114.35,190.132,67.332,256,67.332c55.173,0,102.786,32.99,124.149,80.281c-43.321-1.888-83.818-19.603-114.751-50.382
	c-1.624-1.616-3.853-2.475-6.143-2.372c-2.29,0.106-4.429,1.168-5.899,2.927C219.649,138.167,173.528,165.857,122.526,176.585z
	 M306.806,360.391l-17.344-8.123c5.37-1.207,10.634-2.693,15.773-4.451L306.806,360.391z M222.538,352.268l-17.344,8.123
	l1.571-12.574C211.904,349.575,217.168,351.062,222.538,352.268z M425.458,425.458c-1.14,1.139-2.294,2.256-3.453,3.37
	c-15.78-41.209-46.853-75.547-86.225-95.439c43.593-26.87,72.715-75.049,72.715-129.908c0-84.086-68.409-152.496-152.496-152.496
	s-152.496,68.408-152.496,152.495c0,54.859,29.123,103.04,72.715,129.91c-39.371,19.891-70.445,54.228-86.225,95.439
	c-1.159-1.114-2.313-2.231-3.453-3.37C41.277,380.194,16.349,320.013,16.349,256S41.277,131.806,86.541,86.541
	S191.986,16.349,256,16.349s124.194,24.928,169.458,70.192S495.65,191.986,495.65,256S470.723,380.194,425.458,425.458z"/>
<g>
</g>
<g>
</g>
<g>
</g>
<g>
</g>
<g>
</g>
<g>
</g>
<g>
</g>
<g>
</g>
<g>
</g>
<g>
</g>
<g>
</g>
<g>
</g>
<g>
</g>
<g>
</g>
<g>
</g>
</svg>
